<?xml version="1.0" encoding="UTF-8" standalone="no"?>
<!-- Created with Inkscape (http://www.inkscape.org/) -->

<svg
   width="285"
   height="48"
   viewBox="0 0 75.406249 12.700001"
   version="1.1"
   id="svg5"
   inkscape:version="1.1 (c68e22c387, 2021-05-23)"
   sodipodi:docname="logo-dark.svg"
   xmlns:inkscape="http://www.inkscape.org/namespaces/inkscape"
   xmlns:sodipodi="http://sodipodi.sourceforge.net/DTD/sodipodi-0.dtd"
   xmlns="http://www.w3.org/2000/svg"
   xmlns:svg="http://www.w3.org/2000/svg">
  <sodipodi:namedview
     id="namedview7"
     pagecolor="#ffffff"
     bordercolor="#666666"
     borderopacity="1.0"
     inkscape:pageshadow="2"
     inkscape:pageopacity="0"
     inkscape:pagecheckerboard="true"
     inkscape:document-units="mm"
     showgrid="false"
     units="px"
     inkscape:zoom="5.6568542"
     inkscape:cx="115.17002"
     inkscape:cy="40.747028"
     inkscape:window-width="2560"
     inkscape:window-height="1377"
     inkscape:window-x="1912"
     inkscape:window-y="32"
     inkscape:window-maximized="1"
     inkscape:current-layer="text6846"
     fit-margin-right="2.7755576e-17"
     fit-margin-top="0"
     fit-margin-left="0"
     fit-margin-bottom="0" />
  <defs
     id="defs2">
    <rect
       x="218.70583"
       y="2.1145592"
       width="78.540771"
       height="67.665894"
       id="rect11521" />
  </defs>
  <g
     inkscape:label="Layer 1"
     inkscape:groupmode="layer"
     id="layer1"
     transform="translate(-0.06401282,0.01494702)">
    <text
       xml:space="preserve"
       transform="scale(0.26458333)"
       id="text11519"
       style="font-style:normal;font-weight:normal;font-size:40px;line-height:1.25;font-family:sans-serif;white-space:pre;shape-inside:url(#rect11521);fill:#000000;fill-opacity:1;stroke:none"><tspan
         x="218.70508"
         y="106.27446"
         id="tspan10796"><tspan
           dx="0 27.421875 25.292969 30.058594 26.171875 27.34375 16.835938"
           id="tspan10794">BEHAVIO</tspan></tspan></text>
    <g
       id="g2229"
       transform="matrix(0.0810205,0,0,-0.0810205,-5.3466415,18.003283)"
       style="fill:#000000">
      <path
         d="m 108.453,176.246 c 0,-17.531 -7.258,-23.098 -20.8788,-23.098 -15.6054,0 -20.7929,7.766 -20.7929,23.926 v 44.047 h 10.2734 v -43.246 c 0,-5.898 -0.3906,-17 10.5976,-17 9.0704,0 10.6954,6.59 10.6954,16.543 v 43.703 h 10.1053 v -44.875"
         style="fill:#000000;fill-opacity:1;fill-rule:nonzero;stroke:none"
         id="path2231" />
      <path
         d="M 385.336,66.7813 365.238,124.488 V 66.7813 h -8.621 v 66.7817 h 15.067 l 20.101,-57.6997 v 57.6997 h 9.25 V 66.7813 h -15.699"
         style="fill:#000000;fill-opacity:1;fill-rule:nonzero;stroke:none"
         id="path2233" />
      <path
         d="M 150.613,154.34 130.52,212.047 V 154.34 h -8.622 v 66.781 h 15.071 l 20.097,-57.699 v 57.699 h 9.247 V 154.34 h -15.7"
         style="fill:#000000;fill-opacity:1;fill-rule:nonzero;stroke:none"
         id="path2235" />
      <path
         d="m 181.879,154.34 v 66.781 H 192.23 V 154.34 h -10.351"
         style="fill:#000000;fill-opacity:1;fill-rule:nonzero;stroke:none"
         id="path2237" />
      <path
         d="m 402.012,154.34 v 66.781 h 10.355 V 154.34 h -10.355"
         style="fill:#000000;fill-opacity:1;fill-rule:nonzero;stroke:none"
         id="path2239" />
      <path
         d="m 229.652,154.34 h -12.168 l -16.879,66.781 h 10.774 l 12.664,-57.336 13.137,57.336 h 10.09 L 229.652,154.34"
         style="fill:#000000;fill-opacity:1;fill-rule:nonzero;stroke:none"
         id="path2241" />
      <path
         d="m 255.426,154.34 v 66.781 h 33.066 v -7.98 h -22.804 v -20.364 h 21.328 v -7.714 h -21.328 v -22.735 h 23.449 v -7.988 h -33.711"
         style="fill:#000000;fill-opacity:1;fill-rule:nonzero;stroke:none"
         id="path2243" />
      <path
         d="M 310.93,66.7813 V 133.563 H 344 v -7.981 h -22.805 v -20.363 h 21.321 V 97.5039 H 321.195 V 74.7695 h 23.446 V 66.7813 H 310.93"
         style="fill:#000000;fill-opacity:1;fill-rule:nonzero;stroke:none"
         id="path2245" />
      <path
         d="m 458.871,66.7813 v 66.7817 h 33.067 v -7.981 h -22.801 v -20.363 h 21.328 V 97.5039 H 469.137 V 74.7695 h 23.445 v -7.9882 h -33.711"
         style="fill:#000000;fill-opacity:1;fill-rule:nonzero;stroke:none"
         id="path2247" />
      <path
         d="m 328.617,203.414 c 0,7.734 -4.09,9.902 -10.554,9.902 h -6.93 V 191.93 h 5.394 c 8.848,0 12.09,2.351 12.09,11.484 z m 0.137,-49.074 c -0.938,6.406 -0.945,16.25 -1.016,17.48 -0.242,5 -0.886,8.203 -1.937,9.629 -1.227,1.778 -4.059,2.676 -8.488,2.676 h -6.18 V 154.34 h -10.348 v 66.781 h 19.199 c 11.047,0 19.11,-2.648 19.11,-16.898 0,-8.993 -3.645,-14.383 -10.914,-16.172 3.75,-0.301 6.336,-1.602 7.75,-3.875 1.113,-1.731 2.121,-5.715 2.121,-10.696 0,-1.914 0.402,-14.949 1.387,-19.14 h -10.684"
         style="fill:#000000;fill-opacity:1;fill-rule:nonzero;stroke:none"
         id="path2249" />
      <path
         d="m 389.34,171.156 c 0,-11.992 -6.563,-18.008 -19.676,-18.008 -14.687,0 -19.769,5.899 -19.769,19.922 v 0.735 h 10.597 v -0.735 c 0,-7.929 2.031,-12.285 9.16,-12.285 6.114,0 9.172,3.184 9.172,9.551 0,5.684 -3.453,8.359 -6.379,10.266 -1.414,0.925 -3.289,2.097 -5.644,3.523 -9.86,6.066 -15.977,10.098 -15.977,20.93 0,11.054 6.836,17.336 19.563,17.336 12.187,0 18.281,-5.555 18.281,-16.672 v -2.403 h -10.363 v 1.661 c 0,6.468 -2.785,9.695 -8.387,9.695 -5.07,0 -8.574,-2.918 -8.574,-8.875 0,-6.633 4.715,-8.789 9.148,-11.652 1.539,-0.977 3.113,-1.993 4.711,-3.036 10.457,-6.679 14.137,-9.726 14.137,-19.953"
         style="fill:#000000;fill-opacity:1;fill-rule:nonzero;stroke:none"
         id="path2251" />
      <path
         d="M 446.695,213.141 V 154.34 h -10.347 v 58.801 h -15.414 v 7.98 h 41.179 v -7.98 h -15.418"
         style="fill:#000000;fill-opacity:1;fill-rule:nonzero;stroke:none"
         id="path2253" />
      <path
         d="M 207.094,125.582 V 66.7813 h -10.352 v 58.8007 h -15.414 v 7.981 h 41.184 v -7.981 h -15.418"
         style="fill:#000000;fill-opacity:1;fill-rule:nonzero;stroke:none"
         id="path2255" />
      <path
         d="M 435.016,125.582 V 66.7813 h -10.344 v 58.8007 h -15.418 v 7.981 h 41.18 v -7.981 h -15.418"
         style="fill:#000000;fill-opacity:1;fill-rule:nonzero;stroke:none"
         id="path2257" />
      <path
         d="m 287.816,66.7813 h -12.078 l -10.425,56.0347 -11.54,-56.0347 h -12.078 l -14.199,66.7817 h 10.938 l 9.882,-55.8442 11.45,55.8442 h 12.086 l 10.527,-55.8442 10.617,55.8442 h 9.676 L 287.816,66.7813"
         style="fill:#000000;fill-opacity:1;fill-rule:nonzero;stroke:none"
         id="path2259" />
      <path
         d="m 512.23,70.7383 c 0,-2.9688 -2.41,-5.3906 -5.394,-5.3906 -2.984,0 -5.387,2.4218 -5.387,5.3906 0,2.9883 2.403,5.418 5.387,5.418 2.984,0 5.394,-2.4297 5.394,-5.418"
         style="fill:#000000;fill-opacity:1;fill-rule:nonzero;stroke:none"
         id="path2261" />
      <path
         d="M 492.031,179.828 V 154.34 h -10.347 v 25.488 l -17.551,41.293 h 11.457 l 12.004,-31.867 12.289,31.867 h 10.621 l -18.473,-41.293"
         style="fill:#000000;fill-opacity:1;fill-rule:nonzero;stroke:none"
         id="path2263" />
      <path
         d="m 98.832,100.777 c 0,8.055 -0.2734,13.633 -0.8281,16.719 -1.2305,6.406 -4.5273,9.602 -9.8828,9.602 -5.2969,0 -8.6523,-3.387 -10.0703,-10.16 -0.25,-1.231 -0.4336,-3.204 -0.5547,-5.918 -0.1289,-2.704 -0.1875,-6.211 -0.1875,-10.528 0,-4.0037 0.0508,-7.3631 0.1445,-10.0662 0.0899,-2.707 0.2578,-4.8047 0.5,-6.2813 0.5586,-3.6328 1.543,-6.3086 2.961,-8.0351 1.539,-1.9063 3.9375,-2.8633 7.207,-2.8633 5.4766,0 8.8086,3.4492 9.9766,10.3437 0.2421,1.4141 0.4296,3.543 0.5507,6.375 0.125,2.8321 0.1836,6.4375 0.1836,10.8122 z m 10.715,-1.2028 c 0,-12.0703 -1.047,-20.2344 -3.137,-24.4804 -3.015,-6.3399 -9.2069,-9.5118 -18.5662,-9.5118 -8.9336,0 -14.9102,3.0469 -17.9258,9.1407 -1.2305,2.5859 -2.0899,5.9453 -2.5782,10.0664 -0.371,3.1445 -0.5585,8.039 -0.5585,14.6875 0,8.0664 0.2734,13.9184 0.832,17.5504 0.7344,4.993 2.3047,8.934 4.707,11.825 3.4531,4.003 8.7188,6.007 15.8008,6.007 7.2031,0 12.4689,-1.816 15.7889,-5.449 2.469,-2.648 4.07,-6.594 4.805,-11.828 0.558,-3.633 0.832,-9.637 0.832,-18.0078"
         style="fill:#000000;fill-opacity:1;fill-rule:nonzero;stroke:none"
         id="path2265" />
      <path
         d="m 132.887,125.613 v -20.511 h 19.769 V 97.3477 H 132.887 V 66.7813 h -10.254 v 66.7817 h 31.133 v -7.95 h -20.879"
         style="fill:#000000;fill-opacity:1;fill-rule:nonzero;stroke:none"
         id="path2267" />
    </g>
    <path
       style="fill:#008eaa;fill-opacity:1;stroke-width:0.13004"
       d="m 42.033779,12.475446 c -0.822502,-0.09337 -1.510087,-0.173601 -1.527968,-0.17831 -0.01789,-0.0047 -0.01986,-0.754665 -0.0045,-1.666569 l 0.02812,-1.6580065 0.0409,1.5929885 0.0409,1.592986 h 0.126036 0.126036 V 10.884144 9.6097559 l 0.156074,-0.1560477 c 0.215979,-0.2159802 0.566589,-0.195072 0.809962,0.048301 l 0.204346,0.2043486 v 1.2771932 1.277198 l 0.205696,0.07893 c 0.113136,0.04343 0.26317,0.07893 0.333414,0.07893 h 0.127711 L 42.659676,11.07363 42.618856,9.7286518 42.797327,9.5131547 42.9758,9.297655 h 0.234892 c 0.129185,0 0.326824,0.091955 0.439217,0.2043486 l 0.204347,0.2043487 V 11.1275 12.548649 h 0.260081 0.260079 l -3.12e-4,-2.373225 -3.22e-4,-2.373223 -2.026691,-0.040793 -2.026692,-0.040793 0.08494,0.3008743 0.08494,0.300876 L 40.353691,8.127306 C 40.278583,8.0200149 40.216221,7.8694197 40.21513,7.7926411 l -0.0021,-0.1395977 0.91235,-0.6233815 c 0.501836,-0.3428523 0.9682,-0.718918 1.036407,-0.8356957 l 0.124008,-0.21232 8.38e-4,0.1950596 8.38e-4,0.1950595 -0.842387,0.5741181 c -0.463313,0.315765 -0.82283,0.5936743 -0.798929,0.6175778 0.0239,0.023899 1.282706,0.046091 2.79734,0.049316 l 2.753882,0.00584 0.193477,-0.108282 0.193478,-0.1082803 -0.682384,-0.5102253 -0.682389,-0.5102269 -0.84526,0.010598 -0.845257,0.010598 0.487648,-0.055936 c 0.268208,-0.030749 0.488313,-0.096286 0.489124,-0.1456035 8.39e-4,-0.049318 -0.18937,-1.1722603 -0.422629,-2.4954137 l -0.424061,-2.4057326 -0.03726,0.4551385 c -0.02049,0.2503274 -0.09002,1.2158722 -0.154521,2.145655 l -0.117265,1.6905165 0.04367,-2.0156147 0.04367,-2.0156164 -0.557384,2.2106759 c -0.306523,1.215842 -0.561474,2.122869 -0.56652,2.0155861 -0.0051,-0.1072828 0.243558,-1.3068989 0.552452,-2.6658127 L 43.427621,0.64991263 43.304627,0.49305862 43.181631,0.33620578 43.265525,0.20046275 c 0.04614,-0.0746599 0.201662,-0.13572768 0.345602,-0.13572768 h 0.261712 l -0.0396,0.30214264 -0.0396,0.30214461 0.778017,2.76825428 0.778015,2.7682543 0.944413,0.6682433 0.944413,0.6682434 -0.09204,0.2600789 c -0.05062,0.1430384 -0.112489,1.2329327 -0.137463,2.4219745 l -0.0454,2.161895 -1.140863,0.146311 c -1.355071,0.173779 -1.817715,0.166827 -3.789064,-0.05693 z m 3.196154,-0.09991 c 0.0058,-0.01213 0.06497,-0.220651 0.131288,-0.463524 l 0.120568,-0.441585 0.215691,-0.13605 0.215689,-0.13605 0.205959,0.17093 0.20596,0.170933 -0.01029,0.341685 -0.01029,0.341688 -0.132947,-0.364609 -0.132948,-0.364606 -0.2144,0.04062 -0.2144,0.04062 -0.04114,0.356495 -0.04114,0.356498 h 0.587737 0.587752 l 0.03858,-2.113147 c 0.02121,-1.1622305 0.06782,-2.1939005 0.103596,-2.2926022 l 0.06502,-0.1794544 -0.969243,0.026494 -0.969243,0.026494 -0.233625,0.1250382 -0.233623,0.1250373 v 2.2852151 2.285219 l 0.357342,-0.08969 c 0.196538,-0.04934 0.362164,-0.09956 0.368057,-0.11163 z m -1.50564,-1.181661 c 0,-0.673608 -0.03552,-1.3173052 -0.07893,-1.4304362 l -0.07893,-0.2056967 h -0.297281 -0.297273 l -0.07893,0.2056967 c -0.04343,0.1131336 -0.07893,0.7568282 -0.07893,1.4304362 v 1.224742 h 0.455139 0.455138 z M 41.903739,11.079204 V 9.8698347 L 41.747692,9.7137871 C 41.661866,9.6279626 41.492571,9.5577394 41.371483,9.5577394 h -0.220157 l -0.07893,0.2056959 c -0.107145,0.2792197 -0.100617,2.3300647 0.0077,2.4384437 0.04767,0.04767 0.252494,0.08671 0.45514,0.08671 h 0.368446 z m 2.882848,-6.0776281 c -0.180644,-0.6393976 -0.353197,-1.137787 -0.38345,-1.1075343 -0.05338,0.053387 0.187818,1.7333559 0.312771,2.1785003 l 0.06203,0.2209333 0.168554,-0.064677 0.168553,-0.064677 z m -1.97257,1.3393724 c 0.178803,-0.033237 0.368091,-0.1276641 0.420637,-0.209861 l 0.09553,-0.1494433 0.0021,0.22757 0.0021,0.2275701 -0.422629,-0.017709 -0.42263,-0.017709 z"
       id="path1929" />
    <g
       aria-label="BEHAVIOURAL
DATA SCIENCE
INCUBATOR"
       id="text6846"
       style="font-weight:bold;font-size:4.80168px;line-height:0.95;font-family:'Roboto Condensed';-inkscape-font-specification:'Roboto Condensed,  Bold';stroke-width:0.40014">
      <path
         d="M 47.992605,3.4801135 V 0.06641907 h 0.972997 q 0.466569,0 0.701026,0.22742332 0.236802,0.22742333 0.236802,0.68226998 0,0.23914613 -0.119573,0.42202263 -0.119573,0.1828765 -0.323551,0.283693 0.234457,0.070337 0.370442,0.2883822 0.13833,0.218045 0.13833,0.5251838 0,0.4595357 -0.253214,0.7221276 -0.250869,0.2625919 -0.717438,0.2625919 z M 48.421661,1.8834611 V 3.112016 h 0.586143 q 0.243835,0 0.386854,-0.1594308 0.143019,-0.1617754 0.143019,-0.4525021 0,-0.616622 -0.520495,-0.616622 z m 0,-0.3610638 h 0.550974 q 0.222734,0 0.35872,-0.1500525 0.138329,-0.1500525 0.138329,-0.398577 0,-0.28134845 -0.124262,-0.40795525 -0.124262,-0.12895137 -0.37982,-0.12895137 h -0.543941 z"
         style="font-weight:normal;-inkscape-font-specification:'Roboto Condensed, ';fill:#000000"
         id="path10567" />
      <path
         d="M 52.248,1.9022177 H 51.040546 V 3.112016 h 1.406743 V 3.4801135 H 50.61149 V 0.06641907 h 1.812353 V 0.43686118 H 51.040546 V 1.5341201 H 52.248 Z"
         style="font-weight:normal;-inkscape-font-specification:'Roboto Condensed, ';fill:#000000"
         id="path10569" />
      <path
         d="M 55.230294,3.4801135 H 54.798893 V 1.9022177 H 53.424974 V 3.4801135 H 52.995918 V 0.06641907 h 0.429056 V 1.5341201 h 1.373919 V 0.06641907 h 0.431401 z"
         style="font-weight:normal;-inkscape-font-specification:'Roboto Condensed, ';fill:#000000"
         id="path10571" />
      <path
         d="m 57.607688,2.5891768 h -1.153529 l -0.264936,0.8909367 h -0.44078 l 1.099604,-3.41369443 h 0.368097 l 1.101949,3.41369443 h -0.44078 z m -1.04099,-0.3704421 h 0.930795 l -0.46657,-1.55210562 z"
         style="font-weight:normal;-inkscape-font-specification:'Roboto Condensed, ';fill:#000000"
         id="path10573" />
      <path
         d="m 59.553681,2.8212892 0.780742,-2.75487013 h 0.471259 L 59.743591,3.4801135 H 59.36846 L 58.308714,0.06641907 h 0.468914 z"
         style="font-weight:normal;-inkscape-font-specification:'Roboto Condensed, ';fill:#000000"
         id="path10575" />
      <path
         d="M 61.715375,3.4801135 H 61.286319 V 0.06641907 h 0.429056 z"
         style="font-weight:normal;-inkscape-font-specification:'Roboto Condensed, ';fill:#000000"
         id="path10577" />
      <path
         d="m 64.688291,2.0733713 q 0,0.698682 -0.297761,1.0761578 -0.29776,0.3774758 -0.84639,0.3774758 -0.527528,0 -0.834667,-0.365753 Q 62.404679,2.7931544 62.392956,2.1226073 V 1.480195 q 0,-0.68461455 0.30245,-1.07146866 0.302449,-0.38919868 0.844045,-0.38919868 0.539251,0 0.839356,0.37278669 0.30245,0.37044211 0.309484,1.05974575 z M 64.259234,1.4755059 q 0,-0.5415958 -0.178187,-0.80418768 -0.175843,-0.26493645 -0.541596,-0.26493645 -0.35403,0 -0.536906,0.26728102 -0.180532,0.26728102 -0.182877,0.78777561 v 0.6119329 q 0,0.5228392 0.180532,0.7971539 0.182876,0.2743147 0.54394,0.2743147 0.361064,0 0.534562,-0.2532136 0.173499,-0.2532136 0.180532,-0.7760527 z"
         style="font-weight:normal;-inkscape-font-specification:'Roboto Condensed, ';fill:#000000"
         id="path10579" />
      <path
         d="M 67.38689,0.06641907 V 2.4930494 q -0.0047,0.4853261 -0.281348,0.7596408 -0.27666,0.2743147 -0.771364,0.2743147 -0.506427,0 -0.773708,-0.267281 Q 65.293189,2.9900983 65.2885,2.4930494 V 0.06641907 h 0.426711 V 2.4766374 q 0,0.3446518 0.145364,0.5158055 0.147708,0.168809 0.473603,0.168809 0.32824,0 0.473603,-0.168809 0.147708,-0.1711537 0.147708,-0.5158055 V 0.06641907 Z"
         style="font-weight:normal;-inkscape-font-specification:'Roboto Condensed, ';fill:#000000"
         id="path10581" />
      <path
         d="m 69.079671,2.0991616 h -0.60021 V 3.4801135 H 68.04806 V 0.06641907 h 0.956584 q 0.501738,0 0.759641,0.26259188 0.257903,0.26024731 0.257903,0.76432995 0,0.316517 -0.140674,0.5533186 -0.13833,0.234457 -0.393888,0.3540301 l 0.661169,1.4512891 v 0.028135 H 69.686914 Z M 68.479461,1.731064 h 0.520494 q 0.269626,0 0.429057,-0.1734982 0.161775,-0.1734982 0.161775,-0.4642249 0,-0.65647972 -0.595521,-0.65647972 h -0.515805 z"
         style="font-weight:normal;-inkscape-font-specification:'Roboto Condensed, ';fill:#000000"
         id="path10583" />
      <path
         d="m 72.188571,2.5891768 h -1.153529 l -0.264936,0.8909367 h -0.44078 L 71.42893,0.06641907 h 0.368097 l 1.101949,3.41369443 h -0.44078 z m -1.04099,-0.3704421 h 0.930795 l -0.46657,-1.55210562 z"
         style="font-weight:normal;-inkscape-font-specification:'Roboto Condensed, ';fill:#000000"
         id="path10585" />
      <path
         d="m 73.794602,3.112016 h 1.33875 V 3.4801135 H 73.363201 V 0.06641907 h 0.431401 z"
         style="font-weight:normal;-inkscape-font-specification:'Roboto Condensed, ';fill:#000000"
         id="path10587" />
      <path
         d="M 47.828211,8.0417095 V 4.6280151 h 0.813566 q 0.597865,0 0.92845,0.3751313 0.330584,0.3727866 0.330584,1.0503675 V 6.625589 q 0,0.6775809 -0.335273,1.048023 -0.335274,0.3680975 -0.972997,0.3680975 z M 48.257267,4.9984572 V 7.673612 h 0.344652 q 0.452502,0 0.661169,-0.2579028 0.208667,-0.2602473 0.213356,-0.769019 V 6.041791 q 0,-0.5392512 -0.208667,-0.7901202 -0.206322,-0.2532136 -0.626,-0.2532136 z"
         style="font-weight:normal;-inkscape-font-specification:'Roboto Condensed, ';fill:#008eaa"
         id="path10589" />
      <path
         d="M 52.111741,7.1507728 H 50.958212 L 50.693276,8.0417095 H 50.252497 L 51.3521,4.6280151 h 0.368098 l 1.101948,3.4136944 H 52.381367 Z M 51.070752,6.7803307 h 0.930794 L 51.534977,5.2282251 Z"
         style="font-weight:normal;-inkscape-font-specification:'Roboto Condensed, ';fill:#008eaa"
         id="path10591" />
      <path
         d="M 54.979151,4.9984572 H 54.08118 V 8.0417095 H 53.652124 V 4.9984572 H 52.756498 V 4.6280151 h 2.222653 z"
         style="font-weight:normal;-inkscape-font-specification:'Roboto Condensed, ';fill:#008eaa"
         id="path10593" />
      <path
         d="M 56.889975,7.1507728 H 55.736447 L 55.47151,8.0417095 h -0.440779 l 1.099603,-3.4136944 h 0.368098 L 57.60038,8.0417095 H 57.159601 Z M 55.848986,6.7803307 H 56.77978 L 56.313211,5.2282251 Z"
         style="font-weight:normal;-inkscape-font-specification:'Roboto Condensed, ';fill:#008eaa"
         id="path10595" />
      <path
         d="m 60.655355,7.1789076 q 0,-0.2555581 -0.138329,-0.3915432 Q 60.378696,6.6513793 60.017632,6.5224279 59.656568,6.3934766 59.464314,6.2528024 59.274403,6.1097836 59.178276,5.9292516 q -0.09378,-0.1828764 -0.09378,-0.4173335 0,-0.4056107 0.269626,-0.6682025 0.27197,-0.2625919 0.710405,-0.2625919 0.300105,0 0.534562,0.1359851 0.234457,0.1336405 0.361064,0.3727867 0.126606,0.2391461 0.126606,0.5251837 h -0.431401 q 0,-0.316517 -0.152397,-0.4900152 -0.152397,-0.1734982 -0.438434,-0.1734982 -0.260248,0 -0.403266,0.1453634 -0.143019,0.1453633 -0.143019,0.4079552 0,0.2157005 0.154741,0.3610638 0.154742,0.1453634 0.478293,0.2602474 0.504082,0.1664644 0.719783,0.4102998 0.218045,0.2438353 0.218045,0.6377231 0,0.414989 -0.269626,0.665858 -0.269625,0.2485244 -0.73385,0.2485244 -0.297761,0 -0.550974,-0.1289513 Q 59.283782,7.8283536 59.138418,7.5938966 58.9954,7.357095 58.9954,7.0523008 h 0.431401 q 0,0.316517 0.175842,0.4923598 0.178188,0.1758428 0.482982,0.1758428 0.283693,0 0.426712,-0.1453634 0.143018,-0.1453633 0.143018,-0.3962324 z"
         style="font-weight:normal;-inkscape-font-specification:'Roboto Condensed, ';fill:#008eaa"
         id="path10597" />
      <path
         d="m 63.79239,6.958518 q -0.02813,0.5486295 -0.309483,0.8393562 -0.279004,0.2907267 -0.79012,0.2907267 -0.513461,0 -0.815911,-0.3891986 Q 61.574427,7.307859 61.574427,6.6396565 V 6.0206899 q 0,-0.665858 0.309483,-1.0527121 0.311828,-0.3868541 0.848734,-0.3868541 0.494705,0 0.76433,0.2977604 Q 63.768945,5.1743 63.79239,5.725274 H 63.358645 Q 63.33051,5.3079405 63.182802,5.1297532 63.035094,4.9515658 62.732644,4.9515658 q -0.349341,0 -0.536906,0.2743147 -0.187566,0.2719702 -0.187566,0.7994985 v 0.6260003 q 0,0.5181501 0.173498,0.7948094 0.175843,0.2766593 0.511117,0.2766593 0.335273,0 0.482981,-0.1664645 0.147708,-0.1664645 0.182877,-0.5978655 z"
         style="font-weight:normal;-inkscape-font-specification:'Roboto Condensed, ';fill:#008eaa"
         id="path10599" />
      <path
         d="M 64.821657,8.0417095 H 64.392601 V 4.6280151 h 0.429056 z"
         style="font-weight:normal;-inkscape-font-specification:'Roboto Condensed, ';fill:#008eaa"
         id="path10601" />
      <path
         d="M 67.210775,6.4638137 H 66.003321 V 7.673612 h 1.406742 V 8.0417095 H 65.574265 V 4.6280151 h 1.812353 v 0.3704421 h -1.383297 v 1.0972589 h 1.207454 z"
         style="font-weight:normal;-inkscape-font-specification:'Roboto Condensed, ';fill:#008eaa"
         id="path10603" />
      <path
         d="M 70.188379,8.0417095 H 69.756978 L 68.390094,5.4111016 V 8.0417095 H 67.958693 V 4.6280151 h 0.431401 l 1.371573,2.6423308 V 4.6280151 h 0.426712 z"
         style="font-weight:normal;-inkscape-font-specification:'Roboto Condensed, ';fill:#008eaa"
         id="path10605" />
      <path
         d="m 73.072199,6.958518 q -0.02813,0.5486295 -0.309483,0.8393562 -0.279004,0.2907267 -0.79012,0.2907267 -0.513461,0 -0.815911,-0.3891986 Q 70.854236,7.307859 70.854236,6.6396565 V 6.0206899 q 0,-0.665858 0.309483,-1.0527121 0.311828,-0.3868541 0.848734,-0.3868541 0.494705,0 0.76433,0.2977604 Q 73.048754,5.1743 73.072199,5.725274 H 72.638454 Q 72.610319,5.3079405 72.462611,5.1297532 72.314903,4.9515658 72.012453,4.9515658 q -0.349341,0 -0.536906,0.2743147 -0.187566,0.2719702 -0.187566,0.7994985 v 0.6260003 q 0,0.5181501 0.173498,0.7948094 0.175843,0.2766593 0.511117,0.2766593 0.335273,0 0.482981,-0.1664645 0.147708,-0.1664645 0.182877,-0.5978655 z"
         style="font-weight:normal;-inkscape-font-specification:'Roboto Condensed, ';fill:#008eaa"
         id="path10607" />
      <path
         d="M 75.290164,6.4638137 H 74.082711 V 7.673612 h 1.406742 V 8.0417095 H 73.653654 V 4.6280151 h 1.812353 v 0.3704421 h -1.383296 v 1.0972589 h 1.207453 z"
         style="font-weight:normal;-inkscape-font-specification:'Roboto Condensed, ';fill:#008eaa"
         id="path10609" />
      <path
         d="M 48.276024,12.603306 H 47.846968 V 9.1896111 h 0.429056 z"
         style="font-weight:normal;-inkscape-font-specification:'Roboto Condensed, ';fill:#000000"
         id="path10611" />
      <path
         d="M 51.258318,12.603306 H 50.826917 L 49.460032,9.9726976 V 12.603306 H 49.028631 V 9.1896111 h 0.431401 l 1.371574,2.6423309 V 9.1896111 h 0.426712 z"
         style="font-weight:normal;-inkscape-font-specification:'Roboto Condensed, ';fill:#000000"
         id="path10613" />
      <path
         d="m 54.142139,11.520114 q -0.02813,0.54863 -0.309483,0.839356 -0.279004,0.290727 -0.790121,0.290727 -0.513461,0 -0.81591,-0.389199 -0.30245,-0.391543 -0.30245,-1.059746 v -0.618966 q 0,-0.6658581 0.309484,-1.0527122 0.311827,-0.3868541 0.848734,-0.3868541 0.494704,0 0.76433,0.2977604 0.27197,0.2954159 0.295416,0.8463899 H 53.708393 Q 53.680259,9.8695365 53.532551,9.6913492 53.384843,9.5131618 53.082393,9.5131618 q -0.349341,0 -0.536907,0.2743148 -0.187565,0.2719704 -0.187565,0.7994984 v 0.626 q 0,0.51815 0.173498,0.79481 0.175843,0.276659 0.511116,0.276659 0.335274,0 0.482982,-0.166465 0.147708,-0.166464 0.182876,-0.597865 z"
         style="font-weight:normal;-inkscape-font-specification:'Roboto Condensed, ';fill:#000000"
         id="path10615" />
      <path
         d="m 56.75868,9.1896111 v 2.4266299 q -0.0047,0.485327 -0.281349,0.759641 -0.276659,0.274315 -0.771363,0.274315 -0.506428,0 -0.773709,-0.267281 -0.267281,-0.269626 -0.27197,-0.766675 V 9.1896111 h 0.426712 v 2.4102179 q 0,0.344652 0.145363,0.515806 0.147708,0.168809 0.473604,0.168809 0.328239,0 0.473603,-0.168809 0.147708,-0.171154 0.147708,-0.515806 V 9.1896111 Z"
         style="font-weight:normal;-inkscape-font-specification:'Roboto Condensed, ';fill:#000000"
         id="path10617" />
      <path
         d="M 57.419849,12.603306 V 9.1896111 h 0.972996 q 0.46657,0 0.701027,0.2274233 0.236802,0.2274234 0.236802,0.6822696 0,0.239147 -0.119574,0.422023 -0.119573,0.182877 -0.32355,0.283693 0.234457,0.07034 0.370442,0.288382 0.138329,0.218045 0.138329,0.525184 0,0.459536 -0.253213,0.722128 -0.250869,0.262592 -0.717439,0.262592 z m 0.429056,-1.596653 v 1.228555 h 0.586143 q 0.243835,0 0.386854,-0.159431 0.143019,-0.161775 0.143019,-0.452502 0,-0.616622 -0.520495,-0.616622 z m 0,-0.361064 h 0.550974 q 0.222734,0 0.358719,-0.150052 0.13833,-0.150053 0.13833,-0.398577 0,-0.2813486 -0.124262,-0.4079554 -0.124262,-0.1289514 -0.379821,-0.1289514 h -0.54394 z"
         style="font-weight:normal;-inkscape-font-specification:'Roboto Condensed, ';fill:#000000"
         id="path10619" />
      <path
         d="m 61.630697,11.712369 h -1.153529 l -0.264936,0.890937 h -0.440779 l 1.099603,-3.4136949 h 0.368098 l 1.101948,3.4136949 h -0.440779 z m -1.040989,-0.370442 h 0.930794 L 61.053933,9.7898211 Z"
         style="font-weight:normal;-inkscape-font-specification:'Roboto Condensed, ';fill:#000000"
         id="path10621" />
      <path
         d="M 64.498106,9.5600532 H 63.600135 V 12.603306 H 63.171079 V 9.5600532 H 62.275453 V 9.1896111 h 2.222653 z"
         style="font-weight:normal;-inkscape-font-specification:'Roboto Condensed, ';fill:#000000"
         id="path10623" />
      <path
         d="m 67.156849,11.196563 q 0,0.698682 -0.29776,1.076158 -0.297761,0.377476 -0.84639,0.377476 -0.527529,0 -0.834667,-0.365753 -0.304795,-0.368098 -0.316517,-1.038645 v -0.642412 q 0,-0.6846145 0.302449,-1.0714686 0.30245,-0.3891987 0.844045,-0.3891987 0.539252,0 0.839357,0.3727867 0.302449,0.3704421 0.309483,1.0597456 z m -0.429056,-0.597865 q 0,-0.541596 -0.178188,-0.8041877 -0.175843,-0.2649365 -0.541596,-0.2649365 -0.35403,0 -0.536906,0.267281 -0.180532,0.2672812 -0.182877,0.7877752 v 0.611933 q 0,0.52284 0.180532,0.797154 0.182877,0.274315 0.543941,0.274315 0.361063,0 0.534562,-0.253214 0.173498,-0.253213 0.180532,-0.776052 z"
         style="font-weight:normal;-inkscape-font-specification:'Roboto Condensed, ';fill:#000000"
         id="path10625" />
      <path
         d="m 68.851973,11.222354 h -0.60021 v 1.380952 H 67.820362 V 9.1896111 h 0.956585 q 0.501738,0 0.759641,0.2625919 0.257903,0.2602473 0.257903,0.76433 0,0.316517 -0.140675,0.553319 -0.138329,0.234457 -0.393887,0.35403 l 0.661168,1.451289 v 0.02814 h -0.46188 z m -0.60021,-0.368098 h 0.520495 q 0.269625,0 0.429056,-0.173498 0.161776,-0.173498 0.161776,-0.464225 0,-0.6564798 -0.595521,-0.6564798 h -0.515806 z"
         style="font-weight:normal;-inkscape-font-specification:'Roboto Condensed, ';fill:#000000"
         id="path10627" />
    </g>
  </g>
  <g
     inkscape:groupmode="layer"
     id="layer2"
     inkscape:label="Layer 2"
     transform="translate(-0.06401282,0.01494702)" />
</svg>
