<?xml version="1.0" encoding="UTF-8" standalone="no"?>
<!-- Generator: Adobe Illustrator 25.2.2, SVG Export Plug-In . SVG Version: 6.00 Build 0)  -->

<svg
   version="1.1"
   id="Layer_1"
   x="0px"
   y="0px"
   viewBox="0 0 165.84 265.92"
   style="enable-background:new 0 0 165.84 265.92;"
   xml:space="preserve"
   sodipodi:docname="logo.svg"
   inkscape:version="1.1 (c68e22c387, 2021-05-23)"
   xmlns:inkscape="http://www.inkscape.org/namespaces/inkscape"
   xmlns:sodipodi="http://sodipodi.sourceforge.net/DTD/sodipodi-0.dtd"
   xmlns:xlink="http://www.w3.org/1999/xlink"
   xmlns="http://www.w3.org/2000/svg"
   xmlns:svg="http://www.w3.org/2000/svg"><defs
   id="defs71" /><sodipodi:namedview
   id="namedview69"
   pagecolor="#505050"
   bordercolor="#eeeeee"
   borderopacity="1"
   inkscape:pageshadow="0"
   inkscape:pageopacity="0"
   inkscape:pagecheckerboard="0"
   showgrid="false"
   inkscape:zoom="3.2829421"
   inkscape:cx="83.004815"
   inkscape:cy="132.96001"
   inkscape:window-width="2560"
   inkscape:window-height="1377"
   inkscape:window-x="1912"
   inkscape:window-y="32"
   inkscape:window-maximized="1"
   inkscape:current-layer="g48" />
<style
   type="text/css"
   id="style2">
	.st0{display:none;clip-path:url(#SVGID_2_);}
	.st1{fill:#353535;}
</style>
<g
   id="g12">
	<defs
   id="defs5">
		<rect
   id="SVGID_1_"
   width="165.84"
   height="265.92" />
	</defs>
	<clipPath
   id="SVGID_2_">
		<use
   xlink:href="#SVGID_1_"
   style="display:none;overflow:visible;"
   id="use7" />
	</clipPath>
	<g
   class="st0"
   clip-path="url(#SVGID_2_)"
   id="g10">
	</g>
</g>
<g
   id="g18"
   style="fill:#ffffff;fill-opacity:1">
	<g
   id="g16"
   style="fill:#ffffff;fill-opacity:1">
		<path
   class="st1"
   d="M97.94,142.7c0-11.54,0.2-24.71,0.4-32.39h-0.28c-2.33,12.83-6.08,35.64-10.5,57.52H76.64    c-3.28-20.38-7.16-44.64-9.33-57.71h-0.38c0.4,7.89,0.7,22.05,0.7,33.73v23.98H56.57v-67.58h18.09c3.54,18.68,6.64,37.55,8,47.41    h0.1c1.37-9.17,5.61-29.53,9.13-47.41h17.66v67.58H97.94V142.7z"
   id="path14"
   style="fill:#ffffff;fill-opacity:1" />
	</g>
</g>
<g
   id="g24"
   style="fill:#ffffff;fill-opacity:1">
	<g
   id="g22"
   style="fill:#ffffff;fill-opacity:1">
		<path
   class="st1"
   d="M74.83,231.11l-3.36,17.01H59.36l15.65-67.58h15.71l15.82,67.58h-12.7l-3.37-17.01H74.83z M88.31,220.61    c-2.52-12.93-4.54-22.39-5.6-28.84h-0.29c-0.82,6.22-2.96,16.38-5.45,28.84H88.31z"
   id="path20"
   style="fill:#ffffff;fill-opacity:1" />
	</g>
</g>
<g
   id="g30"
   style="fill:#ffffff;fill-opacity:1">
	<g
   id="g28"
   style="fill:#ffffff;fill-opacity:1">
		<path
   class="st1"
   d="M62.64,19.97h12.12v26.71h16.29V19.97h12.12v67.58H91.04V57.19H74.76v30.37H62.64V19.97z"
   id="path26"
   style="fill:#ffffff;fill-opacity:1" />
	</g>
</g>
<g
   id="g36"
   style="fill:#ffffff;fill-opacity:1">
	<g
   id="g34"
   style="fill:#ffffff;fill-opacity:1">
		<path
   class="st1"
   d="M6.73,100.26h20.61c11.73,0,18.17,6.5,18.17,17.14c0,8.52-4.07,12.67-7.81,14.07    c4.78,1.96,9.77,6.34,9.77,16.5c0,12.84-8.36,19.88-20.39,19.88H6.73V100.26z M24.43,127.22c7.52,0,9.48-2.9,9.48-8.73    c0-5.9-3.1-8.63-9.06-8.63h-6.26v17.36H24.43z M18.59,158.4h7.22c6.04,0,9.52-3.09,9.52-10.68c0-6.97-2.89-11.06-10.85-11.06h-5.9    V158.4z"
   id="path32"
   style="fill:#ffffff;fill-opacity:1" />
	</g>
</g>
<g
   id="g42"
   style="fill:#ffffff;fill-opacity:1">
	<g
   id="g40"
   style="fill:#ffffff;fill-opacity:1">
		<path
   class="st1"
   d="M11.12,180.54h12.12v57.26h23.12l-1.17,10.33H11.12V180.54z"
   id="path38"
   style="fill:#ffffff;fill-opacity:1" />
	</g>
</g>
<g
   id="g48">
	<g
   id="g46"
   style="fill:#ffffff;fill-opacity:1">
		<path
   class="st1"
   d="M19.82,30.56H5.38V19.97h41v10.59H31.94v56.99H19.82V30.56z"
   id="path44"
   style="fill:#ffffff;fill-opacity:1" />
	</g>
</g>
<g
   id="g54"
   style="fill:#ffffff;fill-opacity:1">
	<g
   id="g52"
   style="fill:#ffffff;fill-opacity:1">
		<path
   class="st1"
   d="M130.99,148.91c0.59,5.6,2.84,10.54,9.02,10.54c5.96,0,8.17-3.73,8.17-8.76c0-5.55-2.73-8.78-11.28-12.86    c-11.57-5.5-16.1-10.36-16.1-20.4c0-10.84,6.96-18.24,19.19-18.24c15.2,0,18.95,10.28,19.15,19.08h-11.86    c-0.39-3.86-1.39-9.55-7.51-9.55c-4.79,0-6.93,3.11-6.93,7.69c0,4.87,2.17,7.14,10.09,10.82c12.13,5.61,17.57,11.05,17.57,22.36    c0,10.61-6.57,19.39-20.85,19.39c-15.54,0-20.27-9.95-20.7-20.08H130.99z"
   id="path50"
   style="fill:#ffffff;fill-opacity:1" />
	</g>
</g>
<g
   id="g60"
   style="fill:#ffffff;fill-opacity:1">
	<g
   id="g58"
   style="fill:#ffffff;fill-opacity:1">
		<path
   class="st1"
   d="M120.86,180.54h20.61c11.73,0,18.17,6.5,18.17,17.14c0,8.52-4.07,12.67-7.81,14.07    c4.78,1.96,9.77,6.34,9.77,16.5c0,12.84-8.36,19.88-20.39,19.88h-20.35V180.54z M138.55,207.51c7.52,0,9.48-2.9,9.48-8.73    c0-5.9-3.1-8.63-9.06-8.63h-6.26v17.36H138.55z M132.72,238.68h7.22c6.04,0,9.52-3.09,9.52-10.68c0-6.97-2.89-11.06-10.85-11.06    h-5.9V238.68z"
   id="path56"
   style="fill:#ffffff;fill-opacity:1" />
	</g>
</g>
<g
   id="g66"
   style="fill:#ffffff;fill-opacity:1">
	<g
   id="g64"
   style="fill:#ffffff;fill-opacity:1">
		<path
   class="st1"
   d="M157.53,57.52h-21.69v19.63h24.35l-1.49,10.41h-34.81V19.97h34.66v10.59h-22.71v16.45h21.69V57.52z"
   id="path62"
   style="fill:#ffffff;fill-opacity:1" />
	</g>
</g>
</svg>
